<svg width="361" height="337" viewBox="0 0 361 337" fill="none" xmlns="http://www.w3.org/2000/svg">
<path d="M95.4908 97.3533H359.829C360.476 97.3533 361 97.8773 361 98.5249C361 99.1725 360.476 99.6965 359.829 99.6965H95.4908C94.8435 99.6965 94.3197 99.1725 94.3197 98.5249C94.317 97.8773 94.8435 97.3533 95.4908 97.3533Z" fill="url(#paint0_linear_901_461)"/>
<path d="M308.196 77.2918C294.215 68.2122 276.457 67.2798 261.604 74.8386L255.539 77.926L212.758 99.6993H342.703L308.196 77.2918Z" fill="url(#paint1_radial_901_461)"/>
<path d="M212.758 99.6993L255.538 77.926L220.561 49.5909C216.161 46.0278 210.673 44.0824 205.014 44.0824C199.287 44.0824 193.738 46.0735 189.317 49.7118L128.591 99.6993H212.758Z" fill="url(#paint2_radial_901_461)"/>
<path d="M290.725 52.9228H282.713V48.0162H290.725L289.694 50.4695L290.725 52.9228Z" fill="#14A800"/>
<path d="M282.503 70.7058C282.24 70.7058 282.025 70.4909 282.025 70.2275V47.0113C282.025 46.7479 282.24 46.533 282.503 46.533C282.767 46.533 282.982 46.7479 282.982 47.0113V70.2275C282.982 70.4935 282.767 70.7058 282.503 70.7058Z" fill="url(#paint3_linear_901_461)"/>
<path d="M235.326 30.5503C235.447 30.6417 235.56 30.7384 235.665 30.8432L235.684 30.8137C238.294 32.6678 241.467 33.7883 244.91 33.8689C248.525 33.9522 251.896 32.8747 254.668 30.9776C254.671 30.9776 254.671 30.9749 254.671 30.9749C258.937 28.0541 261.784 23.1931 261.913 17.6282C262.125 8.5137 254.964 0.941541 245.88 0.624467C236.779 0.304706 229.062 7.44693 228.686 16.548C228.45 22.2527 231.104 27.3823 235.326 30.5503Z" fill="url(#paint4_radial_901_461)"/>
<path d="M195.475 81.3089L190.463 77.899C179.622 70.5284 166.92 66.3742 153.82 65.9201L144.908 65.6111C142.799 65.5385 141.051 67.226 141.048 69.338C141.048 69.9722 141.204 70.5687 141.483 71.0927L134.432 70.8267C132.241 70.7434 130.42 72.498 130.42 74.6934C130.42 75.8193 130.9 76.835 131.671 77.5443L131.703 77.5363C130.019 78.0038 128.773 79.5489 128.773 81.3976C128.773 83.5849 130.527 85.3664 132.711 85.4013L133.764 85.4175V85.4766C132.993 86.2478 132.515 87.3145 132.515 88.4941C132.515 90.8211 134.376 92.7182 136.702 92.7612C138.599 92.7961 140.978 92.8364 143.501 92.8821C143.425 93.0434 143.358 93.2126 143.304 93.39C142.687 95.4133 143.702 97.5738 145.652 98.3933L145.905 98.5008C155.228 102.416 165.59 103.098 175.346 100.444L195.475 81.3089Z" fill="url(#paint5_radial_901_461)"/>
<path d="M141.483 71.0927L134.433 70.8267C132.241 70.7434 130.42 72.4981 130.42 74.6934C130.42 75.7924 130.882 76.7866 131.62 77.4933L131.701 77.5336C132.09 77.4261 132.501 77.3751 132.928 77.3912L158.698 78.3881L159.45 71.7752L141.483 71.0927Z" fill="url(#paint6_radial_901_461)"/>
<path d="M162.368 66.7503C159.548 66.2989 156.692 66.0221 153.818 65.9227L144.906 65.6137C142.797 65.5412 141.049 67.2286 141.046 69.3407C141.046 69.9721 141.202 70.5713 141.481 71.0953L159.448 71.7751L162.368 66.7503Z" fill="url(#paint7_radial_901_461)"/>
<path d="M131.669 77.5413L131.701 77.5334L131.664 77.536C131.667 77.536 131.669 77.5386 131.669 77.5413Z" fill="url(#paint8_radial_901_461)"/>
<path d="M158.696 78.3854L132.926 77.3885C132.502 77.3724 132.088 77.4234 131.699 77.5309C130.014 77.9984 128.768 79.5435 128.768 81.3922C128.768 83.5795 130.522 85.361 132.706 85.3959L133.759 85.4121L159.448 85.8312L158.696 78.3854Z" fill="url(#paint9_radial_901_461)"/>
<path d="M159.451 85.8339L133.762 85.4147V85.4738C132.991 86.245 132.513 87.3118 132.513 88.4914C132.513 90.8184 134.374 92.7155 136.7 92.7585C138.597 92.7934 140.977 92.8337 143.499 92.8794C151.425 93.0191 160.767 93.1857 160.958 93.1857L159.451 85.8339Z" fill="url(#paint10_radial_901_461)"/>
<path d="M155.618 112.46C155.618 94.6342 141.111 80.1966 123.262 80.3202C105.499 80.4438 91.1127 95.1609 91.3679 112.93C91.435 117.555 92.4772 121.94 94.2983 125.896C98.8163 135.703 100.449 146.594 99.3642 157.337L98.3919 166.949L137.436 164.689L142.373 138.466C150.399 132.619 155.618 123.149 155.618 112.46Z" fill="url(#paint11_radial_901_461)"/>
<path d="M141.876 141.102L142.373 138.463C140.445 139.866 138.358 141.061 136.139 142.013C138.084 141.884 140.004 141.575 141.876 141.102Z" fill="#5B551E"/>
<path d="M148.406 92.1729C142.47 84.8856 133.404 80.2504 123.259 80.3202C105.497 80.4438 91.1101 95.1609 91.3653 112.93C91.4324 117.555 92.4746 121.94 94.2957 125.896C95.9423 129.469 97.2047 133.186 98.0911 136.988C100.42 138.458 102.982 139.557 105.682 140.22C116.015 142.762 126.695 137.6 131.124 127.922C132.091 125.81 133.662 124.031 135.642 122.816L137.844 121.462C144.406 117.429 148.406 110.278 148.406 102.572V92.1729Z" fill="url(#paint12_radial_901_461)"/>
<path d="M252.901 124.302C235.538 111.299 208.165 90.8076 195.476 81.3089C191.238 78.1354 185.605 77.5362 180.792 79.7423C176.123 81.8812 172.94 86.339 172.427 91.4499C171.85 97.2136 173.547 102.975 177.157 107.505L205.119 142.582L190.545 144.275C182.841 145.17 175.191 146.505 167.638 148.271L167.316 148.346C157.968 150.533 148.833 153.325 139.918 156.719C137.401 157.675 134.774 158.678 132.263 159.632C123.638 162.915 114.24 163.581 105.239 161.55L104.455 161.373C95.9559 159.454 87.0678 160.26 79.05 163.676C78.7545 163.802 78.4564 163.928 78.1609 164.054C71.0483 167.085 64.9456 172.081 60.5674 178.457L60.2504 178.917C49.8045 194.125 41.5583 210.734 35.7511 228.248L0 336.099H197.797L176.032 213.902L249.089 175.993C257.099 171.836 262.786 164.261 264.537 155.405L264.62 154.98C266.933 143.294 262.372 131.396 252.901 124.302Z" fill="url(#paint13_radial_901_461)"/>
<path d="M47.2742 200.736C42.7509 209.589 38.8965 218.785 35.7592 228.246L0 336.099H48.1848L67.7633 200.736H47.2742Z" fill="url(#paint14_radial_901_461)"/>
<path d="M172.43 91.4471C171.853 97.2109 173.55 102.972 177.16 107.502L205.122 142.579L236.326 138.963L179.425 80.4597C175.509 82.7894 172.89 86.8549 172.43 91.4471Z" fill="url(#paint15_radial_901_461)"/>
<path d="M176.032 213.9L151.764 226.491V263.841L183.298 254.695L176.032 213.9Z" fill="url(#paint16_radial_901_461)"/>
<defs>
<linearGradient id="paint0_linear_901_461" x1="94.3178" y1="98.5262" x2="361.001" y2="98.5262" gradientUnits="userSpaceOnUse">
<stop stop-color="#C5D1C3" stop-opacity="0"/>
<stop offset="0.3094" stop-color="#C5D1C3"/>
<stop offset="0.3737" stop-color="#C5D1C3"/>
<stop offset="0.7504" stop-color="#C5D1C3"/>
<stop offset="1" stop-color="#C5D1C3" stop-opacity="0.0143"/>
</linearGradient>
<radialGradient id="paint1_radial_901_461" cx="0" cy="0" r="1" gradientUnits="userSpaceOnUse" gradientTransform="translate(254.644 54.8689) scale(61.1254 44.3574)">
<stop offset="0.6772" stop-color="#D6DFD5"/>
<stop offset="0.8024" stop-color="#C2CCC0"/>
<stop offset="1" stop-color="#9CA898"/>
</radialGradient>
<radialGradient id="paint2_radial_901_461" cx="0" cy="0" r="1" gradientUnits="userSpaceOnUse" gradientTransform="translate(219.48 48.5419) rotate(24.6486) scale(48.999 38.2098)">
<stop offset="0.6772" stop-color="#D6DFD5"/>
<stop offset="0.8024" stop-color="#C2CCC0"/>
<stop offset="1" stop-color="#9CA898"/>
</radialGradient>
<linearGradient id="paint3_linear_901_461" x1="282.026" y1="58.6222" x2="282.981" y2="58.6222" gradientUnits="userSpaceOnUse">
<stop offset="0.6772" stop-color="#BC5118"/>
<stop offset="0.7538" stop-color="#A74816"/>
<stop offset="0.9108" stop-color="#722F12"/>
<stop offset="1" stop-color="#51200F"/>
</linearGradient>
<radialGradient id="paint4_radial_901_461" cx="0" cy="0" r="1" gradientUnits="userSpaceOnUse" gradientTransform="translate(241.604 11.7342) rotate(1.32993) scale(19.7386 19.7462)">
<stop offset="0.6772" stop-color="#DEBE1A"/>
<stop offset="0.7526" stop-color="#D8A91A"/>
<stop offset="0.9071" stop-color="#C77419"/>
<stop offset="1" stop-color="#BC5118"/>
</radialGradient>
<radialGradient id="paint5_radial_901_461" cx="0" cy="0" r="1" gradientUnits="userSpaceOnUse" gradientTransform="translate(158.136 72.1175) scale(32.3459 32.3583)">
<stop offset="0.7145" stop-color="#EB9546"/>
<stop offset="0.8193" stop-color="#D68741"/>
<stop offset="1" stop-color="#AA6837"/>
</radialGradient>
<radialGradient id="paint6_radial_901_461" cx="0" cy="0" r="1" gradientUnits="userSpaceOnUse" gradientTransform="translate(142.478 84.3872) scale(17.7972 9.74418)">
<stop offset="0.7145" stop-color="#AA6837"/>
<stop offset="1" stop-color="#AA6837" stop-opacity="0"/>
</radialGradient>
<radialGradient id="paint7_radial_901_461" cx="0" cy="0" r="1" gradientUnits="userSpaceOnUse" gradientTransform="translate(146.242 77.8837) scale(16.2149 9.12603)">
<stop offset="0.7145" stop-color="#AA6837"/>
<stop offset="1" stop-color="#AA6837" stop-opacity="0"/>
</radialGradient>
<radialGradient id="paint8_radial_901_461" cx="0" cy="0" r="1" gradientUnits="userSpaceOnUse" gradientTransform="translate(131.675 77.5342) scale(0.016051 0.0160486)">
<stop offset="0.7145" stop-color="#EB9546"/>
<stop offset="0.8193" stop-color="#D68741"/>
<stop offset="1" stop-color="#AA6837"/>
</radialGradient>
<radialGradient id="paint9_radial_901_461" cx="0" cy="0" r="1" gradientUnits="userSpaceOnUse" gradientTransform="translate(140.463 91.5405) scale(20.638 9.63339)">
<stop offset="0.7145" stop-color="#AA6837"/>
<stop offset="1" stop-color="#AA6837" stop-opacity="0"/>
</radialGradient>
<radialGradient id="paint10_radial_901_461" cx="0" cy="0" r="1" gradientUnits="userSpaceOnUse" gradientTransform="translate(141.435 99.1645) scale(23.3386 9.827)">
<stop offset="0.7145" stop-color="#AA6837"/>
<stop offset="1" stop-color="#AA6837" stop-opacity="0"/>
</radialGradient>
<radialGradient id="paint11_radial_901_461" cx="0" cy="0" r="1" gradientUnits="userSpaceOnUse" gradientTransform="translate(130.403 102.181) scale(38.1234 38.1381)">
<stop offset="0.7145" stop-color="#EB9546"/>
<stop offset="0.8193" stop-color="#D68741"/>
<stop offset="1" stop-color="#AA6837"/>
</radialGradient>
<radialGradient id="paint12_radial_901_461" cx="0" cy="0" r="1" gradientUnits="userSpaceOnUse" gradientTransform="translate(124.68 101.239) scale(40.4028 40.4183)">
<stop offset="0.6772" stop-color="#FCCD81"/>
<stop offset="0.8062" stop-color="#F6B96C"/>
<stop offset="1" stop-color="#EB9546"/>
</radialGradient>
<radialGradient id="paint13_radial_901_461" cx="0" cy="0" r="1" gradientUnits="userSpaceOnUse" gradientTransform="translate(165.546 193.579) scale(154.878 270.103)">
<stop offset="0.3902" stop-color="#BDA1E7"/>
<stop offset="0.6451" stop-color="#AB91D2"/>
<stop offset="1" stop-color="#8D77AF"/>
</radialGradient>
<radialGradient id="paint14_radial_901_461" cx="0" cy="0" r="1" gradientUnits="userSpaceOnUse" gradientTransform="translate(30.3701 206.237) rotate(10.3564) scale(61.941 138.986)">
<stop offset="0.6772" stop-color="#746493" stop-opacity="0"/>
<stop offset="1" stop-color="#746493"/>
</radialGradient>
<radialGradient id="paint15_radial_901_461" cx="0" cy="0" r="1" gradientUnits="userSpaceOnUse" gradientTransform="translate(173.47 134) rotate(-43.7428) scale(37.3591 231.156)">
<stop offset="0.6029" stop-color="#8D77AF"/>
<stop offset="1" stop-color="#8D77AF" stop-opacity="0"/>
</radialGradient>
<radialGradient id="paint16_radial_901_461" cx="0" cy="0" r="1" gradientUnits="userSpaceOnUse" gradientTransform="translate(158.98 262.093) scale(39.6394 54.2396)">
<stop offset="0.6772" stop-color="#746493" stop-opacity="0"/>
<stop offset="1" stop-color="#746493"/>
</radialGradient>
</defs>
</svg>
